<?xml version="1.0" encoding="UTF-8"?>
<svg id="Layer_2" data-name="Layer 2" xmlns="http://www.w3.org/2000/svg" viewBox="0 0 197.24 97.06">
  <defs>
    <style>
      .cls-1 {
        fill: #037b72;
      }
    </style>
  </defs>
  <g id="Layer_1-2" data-name="Layer 1">
    <path class="cls-1" d="M21.53,.07V18.26c0,1.19-.97,2.16-2.16,2.16s-2.16-.97-2.16-2.16V.07C8.12,1.14,1.05,8.87,1.05,18.26c0,10.12,8.21,18.33,18.32,18.33s18.32-8.2,18.32-18.33C37.7,8.87,30.64,1.14,21.53,.07"/>
    <path class="cls-1" d="M90.81,20.48h-18.19c-1.19,0-2.16-.96-2.16-2.16s.97-2.16,2.16-2.16h18.19C89.74,7.07,82.02,0,72.63,0c-10.12,0-18.33,8.21-18.33,18.33s8.2,18.32,18.33,18.32c9.39,0,17.12-7.07,18.19-16.17"/>
    <path class="cls-1" d="M123.58,36.58V18.39c0-1.19,.97-2.16,2.16-2.16s2.16,.97,2.16,2.16v18.19c9.1-1.07,16.17-8.8,16.17-18.19C144.06,8.27,135.86,.07,125.74,.07s-18.32,8.21-18.32,18.33c0,9.39,7.07,17.12,16.17,18.19"/>
    <path class="cls-1" d="M181.07,.07V18.26c0,1.19-.97,2.16-2.16,2.16s-2.16-.97-2.16-2.16V.07c-9.1,1.07-16.17,8.8-16.17,18.19,0,10.12,8.2,18.33,18.32,18.33s18.32-8.2,18.32-18.33c0-9.39-7.07-17.12-16.17-18.19"/>
    <path class="cls-1" d="M33.51,88.3l-.18,2-.16,1.68H0l.36-3.68,.38-4.43,.34-3.68H21.92l.94-10.65,.16-1.68h12.33l-.18,2-1.26,14.01-.4,4.43Zm-3.68,0l1.51-16.76h-4.96l-1.1,12.33H4.43l-.4,4.43H29.83Zm-19.9-14.24c-.46,0-.9-.09-1.3-.26-.4-.17-.76-.41-1.05-.71-.3-.3-.54-.65-.71-1.06-.17-.4-.26-.84-.26-1.3s.09-.9,.26-1.3,.41-.76,.71-1.06c.3-.3,.65-.54,1.05-.72,.4-.18,.84-.27,1.3-.27,.63,0,1.2,.16,1.72,.47,.52,.31,.92,.73,1.2,1.23,.3-.51,.7-.92,1.21-1.23,.51-.32,1.08-.47,1.71-.47,.46,0,.9,.09,1.3,.27,.4,.18,.76,.42,1.06,.72,.3,.3,.54,.65,.72,1.06,.18,.4,.27,.84,.27,1.3s-.09,.9-.27,1.3c-.18,.4-.42,.76-.72,1.06-.3,.3-.65,.54-1.06,.71-.4,.17-.84,.26-1.3,.26-.63,0-1.2-.15-1.71-.46s-.91-.72-1.21-1.25c-.29,.52-.69,.94-1.2,1.25-.52,.31-1.09,.46-1.72,.46"/>
    <polygon class="cls-1" points="40.74 63.66 35.78 63.66 33.53 88.3 42.18 88.3 41.85 91.98 31.51 91.98 29.51 91.98 32.43 59.97 34.1 59.97 42.74 59.97 44.77 59.97 44.56 61.97 42.59 83.87 38.93 83.87 40.74 63.66"/>
    <path class="cls-1" d="M57.73,78.82l.56-6.04c.12-1.32,.09-2.53-.09-3.65-.18-1.11-.51-2.08-.98-2.9-.47-.82-1.08-1.46-1.82-1.92-.74-.46-1.61-.7-2.62-.7-1.14,0-2.23,.23-3.28,.7-1.05,.47-1.99,1.09-2.81,1.88-.82,.79-1.5,1.7-2.04,2.75-.54,1.05-.86,2.16-.97,3.35-.17,1.59-.09,2.89,.24,3.92,.32,1.03,.85,1.83,1.58,2.42,.73,.59,1.67,1,2.81,1.22,1.14,.23,2.45,.34,3.93,.34h.45l-.2,2.02-.18,1.66h-13.36l.36-3.68h2.9c-.48-.42-.88-.92-1.2-1.51-.32-.58-.57-1.21-.75-1.86-.18-.66-.29-1.35-.34-2.07-.05-.72-.04-1.43,.02-2.13,.11-1.14,.33-2.25,.69-3.32s.81-2.09,1.37-3.03c.56-.94,1.22-1.8,1.99-2.58,.76-.78,1.6-1.45,2.51-2.02,.91-.57,1.88-1.01,2.92-1.31,1.04-.31,2.13-.46,3.27-.46,1.89,0,3.46,.34,4.73,1.03,1.27,.69,2.26,1.63,2.99,2.82,.73,1.19,1.21,2.59,1.44,4.19,.23,1.6,.27,3.32,.1,5.17l-.52,5.73-1.08,11.48-.16,1.68h-21.99l.36-3.68h18.31l.88-9.48Zm-8.02-20.22c-.46,0-.9-.09-1.3-.26-.4-.17-.76-.41-1.07-.72-.31-.31-.55-.66-.72-1.07-.17-.4-.26-.84-.26-1.3s.09-.9,.26-1.3c.17-.4,.41-.76,.72-1.06,.31-.3,.66-.54,1.07-.72,.4-.18,.84-.27,1.3-.27,.63,0,1.2,.16,1.72,.47,.52,.31,.92,.73,1.2,1.24,.28-.51,.68-.92,1.2-1.24,.52-.32,1.09-.47,1.72-.47,.46,0,.9,.09,1.3,.27,.4,.18,.76,.42,1.05,.72,.3,.3,.54,.65,.71,1.06,.17,.4,.26,.84,.26,1.3s-.09,.9-.26,1.3c-.17,.41-.41,.76-.71,1.07-.3,.31-.65,.55-1.05,.72-.4,.17-.84,.26-1.3,.26-.63,0-1.2-.16-1.72-.47-.52-.32-.92-.73-1.2-1.26-.29,.52-.68,.94-1.2,1.26-.52,.31-1.09,.47-1.72,.47m1.71,17.18c-.55,0-1.03-.08-1.44-.25-.4-.17-.75-.43-1.03-.81-.21-.3-.33-.63-.37-.99-.04-.36-.03-.73,.03-1.12,.06-.49,.2-1,.43-1.51,.23-.51,.5-.97,.83-1.37,.33-.4,.71-.73,1.13-.98,.43-.25,.89-.36,1.38-.33,.43,.03,.74,.18,.92,.45,.18,.27,.28,.65,.29,1.14,.01,.49-.02,1.06-.1,1.73-.08,.67-.16,1.4-.24,2.21l-.16,1.82h-1.68Z"/>
    <path class="cls-1" d="M84.07,88.32l-.67,7.05-.16,1.68h-12.33l.2-2.02,.29-3.03h-.47c-2.25,0-4.22-.24-5.92-.72-1.7-.48-3.13-1.24-4.3-2.29-1.2-1.08-2.05-2.44-2.56-4.09-.51-1.65-.66-3.63-.45-5.95,.25-2.74,.79-5.29,1.6-7.66,.81-2.37,1.94-4.42,3.39-6.15,1.33-1.6,2.93-2.86,4.81-3.78,1.87-.92,4.03-1.38,6.47-1.38,1.35,0,2.56,.13,3.63,.39,1.07,.26,2.01,.64,2.83,1.13,.82,.49,1.52,1.1,2.1,1.81,.58,.71,1.07,1.52,1.46,2.41,.7,1.62,1.1,3.49,1.2,5.6,.1,2.12,.04,4.4-.19,6.84l-.52,5.73-.4,4.42Zm-3.28-4.42l.54-6.04c.1-1.08,.18-2.12,.21-3.13,.04-1.01,.03-1.97-.01-2.86-.05-.9-.14-1.74-.28-2.53-.14-.79-.36-1.5-.64-2.15-.48-1.09-1.25-1.95-2.3-2.58-1.05-.63-2.5-.94-4.35-.94s-3.48,.34-4.87,1.02c-1.39,.68-2.59,1.62-3.59,2.82-1.2,1.44-2.14,3.17-2.82,5.19-.68,2.02-1.13,4.22-1.34,6.58-.16,1.71-.09,3.13,.22,4.28,.32,1.15,.85,2.06,1.6,2.73,.79,.72,1.84,1.24,3.14,1.56,1.3,.32,2.85,.48,4.63,.48h4.52l-.2,2-.29,3.05h4.96l.47-5.08,.4-4.4Zm-6.63,0h-2.72c-.93,0-1.73-.14-2.41-.4-.68-.27-1.26-.72-1.72-1.35-.82-1.08-1.1-2.68-.83-4.81,.17-1.21,.42-2.32,.75-3.33,.34-1.01,.72-1.9,1.16-2.66,.6-1.03,1.28-1.82,2.04-2.37,.76-.55,1.54-.82,2.31-.82,.51,0,.96,.02,1.36,.07s.74,.14,1.04,.29c.3,.15,.56,.37,.79,.67,.23,.3,.41,.7,.56,1.21,.18,.57,.26,1.34,.23,2.31-.02,.97-.11,2.29-.26,3.95l-.49,5.55-.16,1.68h-1.66Zm-2.72-3.68h1.03l.36-3.86c.06-.67,.11-1.27,.15-1.8,.04-.52,.06-.98,.08-1.37,.03-.57,.04-.98,.03-1.25,0-.26-.09-.39-.26-.39-.3,0-.6,.2-.89,.6-.29,.4-.56,.9-.81,1.52-.25,.61-.46,1.29-.64,2.02-.18,.73-.31,1.44-.38,2.11-.14,1.14-.09,1.86,.14,2.18,.12,.16,.52,.25,1.19,.25"/>
    <path class="cls-1" d="M83.71,91.98h-3.68l2.92-32.01h21l-.18,2-2.38,26.32-.36,3.68h-17.32Zm6.54-16.94l1.01-11.39h-4.96l-2.25,24.64h13.68l2.2-24.64h-4.96l-1.84,20.21h-3.66l.79-8.83Z"/>
    <path class="cls-1" d="M109.7,91.98h-12.33l.18-2,2.58-28.32,.16-1.68h12.31l-.18,2-2.38,26.33-.34,3.68Zm-1.1-28.32h-4.96l-2.25,24.64h4.99l2.22-24.64Z"/>
    <path class="cls-1" d="M140.29,88.3l-.36,3.68h-12.78c-2.25,0-4.22-.24-5.92-.71-1.7-.47-3.13-1.23-4.3-2.28-1.2-1.09-2.05-2.46-2.56-4.11-.51-1.65-.66-3.63-.45-5.96,.12-1.36,.31-2.68,.57-3.97,.26-1.28,.6-2.51,1.02-3.67,.42-1.17,.91-2.27,1.47-3.3,.56-1.04,1.2-1.99,1.92-2.86,1.42-1.74,3.08-3.04,4.96-3.9,1.89-.86,4.12-1.28,6.72-1.27l12.29,.02-.34,3.68-1.84,20.24h-3.68l1.84-20.24h-8.67c-1.92,0-3.56,.34-4.92,1.01-1.36,.67-2.55,1.62-3.55,2.83-1.2,1.44-2.14,3.17-2.82,5.19-.68,2.02-1.13,4.21-1.34,6.58-.17,1.71-.09,3.13,.22,4.28,.31,1.15,.85,2.06,1.6,2.73,.79,.72,1.84,1.24,3.14,1.55,1.3,.32,2.85,.47,4.63,.47h.81l.4-4.4h-.7c-.93,0-1.73-.13-2.41-.4-.68-.27-1.26-.72-1.72-1.35-.82-1.08-1.1-2.69-.83-4.83,.17-1.21,.42-2.32,.75-3.34,.34-1.01,.72-1.89,1.16-2.64,.6-1.03,1.33-1.83,2.2-2.4,.87-.57,1.86-.85,2.99-.85h3.66l-.76,8.56-.32,3.57-.34,3.68-.4,4.4h8.65Zm-10.69-30.03c-.46,0-.9-.09-1.3-.26-.4-.17-.76-.41-1.07-.72-.31-.31-.55-.66-.72-1.06-.17-.4-.26-.84-.26-1.3s.09-.89,.26-1.3,.41-.75,.72-1.05c.31-.3,.66-.54,1.07-.72,.4-.18,.84-.27,1.3-.27,.63,0,1.2,.16,1.72,.47,.52,.31,.92,.72,1.2,1.23,.28-.51,.69-.92,1.2-1.23,.52-.31,1.09-.47,1.72-.47,.46,0,.9,.09,1.3,.27,.4,.18,.76,.42,1.06,.72,.3,.3,.54,.65,.71,1.05,.17,.4,.26,.84,.26,1.3s-.09,.9-.26,1.3c-.17,.4-.41,.76-.71,1.06-.3,.31-.65,.55-1.06,.72-.4,.17-.84,.26-1.3,.26-.63,0-1.2-.16-1.72-.47-.51-.31-.92-.73-1.2-1.25-.28,.52-.68,.94-1.2,1.25-.52,.31-1.09,.47-1.72,.47m-.11,13.27c-.4,0-.78,.2-1.13,.6-.35,.4-.66,.9-.93,1.52-.27,.61-.5,1.29-.68,2.02-.19,.73-.32,1.44-.39,2.11-.13,1.12-.09,1.84,.14,2.16,.12,.18,.52,.27,1.19,.27h1.03l.34-3.89,.45-4.78Z"/>
    <path class="cls-1" d="M141.01,79.63h9.41c.69,0,1.27,.06,1.73,.17,.46,.11,.83,.32,1.09,.63,.26,.31,.43,.74,.51,1.29,.08,.55,.08,1.27,0,2.16h-16.73l.74-8.65,.32-3.1,12.15-12.15h16.67l-11.84,11.81c.88,.18,1.67,.44,2.36,.79,.69,.35,1.3,.76,1.84,1.24s1.01,1.03,1.42,1.65c.4,.62,.76,1.29,1.08,2.01,.43,.99,.68,1.98,.74,2.99,.06,1,.03,2.14-.09,3.41l-.4,4.42-.34,3.68h-25.38l.31-3.68h21.72l.38-4.42c.06-.63,.1-1.18,.14-1.64,.03-.46,.04-.88,.02-1.26-.01-.37-.06-.72-.12-1.04-.07-.32-.18-.66-.33-1-.24-.55-.55-1.06-.94-1.52-.39-.46-.86-.85-1.42-1.18-.55-.33-1.2-.58-1.93-.76-.73-.18-1.56-.27-2.47-.27l-5.21,.02,3.68-3.68,7.88-7.91h-6.24l-10.17,10.11-.56,5.88Z"/>
    <path class="cls-1" d="M166.03,93.35c.18-.16,.32-.34,.44-.53,.11-.19,.18-.47,.21-.84l.34-3.68h3.64l-.34,3.68c-.15,1.63-.66,2.89-1.54,3.76-.88,.88-2.01,1.31-3.4,1.29h-10.51l.34-3.68c.79-.04,1.46-.28,1.99-.71,.53-.43,.83-.95,.89-1.58l1.93-21.52,.16-1.68h12.33l-.2,2-1.24,14.02h-3.66l1.08-12.33h-4.96l-1.84,20.44c-.03,.24-.09,.46-.19,.66-.1,.2-.25,.44-.46,.71h5.01Z"/>
    <path class="cls-1" d="M167.69,80.21h24.6l-.2,2-.72,8.11-.16,1.66h-24.57l.34-3.68h20.89l.4-4.4h-20.89l.32-3.68Zm10.4-6.15c-.43,0-.85-.08-1.24-.25-.39-.16-.73-.39-1.02-.68-.29-.29-.52-.63-.68-1.02-.17-.39-.25-.8-.25-1.24s.08-.87,.25-1.26c.17-.39,.39-.73,.68-1.02,.29-.29,.63-.52,1.02-.68,.39-.17,.8-.25,1.24-.25,.6,0,1.15,.15,1.64,.46,.49,.31,.88,.7,1.14,1.18,.27-.48,.65-.87,1.15-1.18,.49-.31,1.04-.46,1.64-.46,.45,0,.86,.08,1.25,.25,.38,.16,.72,.39,1.01,.68,.29,.29,.52,.63,.69,1.02,.16,.39,.25,.81,.25,1.26s-.08,.85-.25,1.24c-.17,.39-.39,.73-.69,1.02-.29,.29-.63,.52-1.01,.68-.38,.16-.8,.25-1.25,.25-.6,0-1.15-.15-1.64-.46-.49-.31-.88-.71-1.15-1.2-.27,.49-.65,.89-1.14,1.2s-1.04,.46-1.64,.46m3.3-12.49c.43,0,.85,.08,1.23,.25,.39,.17,.73,.39,1.01,.67,.28,.29,.51,.62,.67,1.01,.17,.39,.25,.8,.25,1.24s-.08,.87-.25,1.26c-.17,.39-.39,.73-.67,1.02-.28,.29-.62,.52-1.01,.68-.39,.17-.8,.25-1.23,.25s-.85-.08-1.24-.25c-.39-.16-.73-.39-1.02-.68-.29-.29-.52-.63-.68-1.02-.17-.39-.25-.81-.25-1.26s.08-.85,.25-1.24c.17-.39,.39-.73,.68-1.01,.29-.28,.63-.51,1.02-.67,.39-.16,.8-.25,1.24-.25"/>
  </g>
</svg>