<svg width="24" height="24" viewBox="0 0 24 24" fill="none" xmlns="http://www.w3.org/2000/svg">
<path d="M15.75 12.75C15.75 12.9489 15.671 13.1397 15.5303 13.2803C15.3897 13.421 15.1989 13.5 15 13.5H12.75V15.75C12.75 15.9489 12.671 16.1397 12.5303 16.2803C12.3897 16.421 12.1989 16.5 12 16.5C11.8011 16.5 11.6103 16.421 11.4697 16.2803C11.329 16.1397 11.25 15.9489 11.25 15.75V13.5H9C8.80109 13.5 8.61032 13.421 8.46967 13.2803C8.32902 13.1397 8.25 12.9489 8.25 12.75C8.25 12.5511 8.32902 12.3603 8.46967 12.2197C8.61032 12.079 8.80109 12 9 12H11.25V9.75C11.25 9.55109 11.329 9.36032 11.4697 9.21967C11.6103 9.07902 11.8011 9 12 9C12.1989 9 12.3897 9.07902 12.5303 9.21967C12.671 9.36032 12.75 9.55109 12.75 9.75V12H15C15.1989 12 15.3897 12.079 15.5303 12.2197C15.671 12.3603 15.75 12.5511 15.75 12.75ZM21.75 7.5V18C21.75 18.5967 21.5129 19.169 21.091 19.591C20.669 20.0129 20.0967 20.25 19.5 20.25H4.5C3.90326 20.25 3.33097 20.0129 2.90901 19.591C2.48705 19.169 2.25 18.5967 2.25 18V7.5C2.25 6.90326 2.48705 6.33097 2.90901 5.90901C3.33097 5.48705 3.90326 5.25 4.5 5.25H7.09875L8.15625 3.6675C8.29299 3.46255 8.47811 3.29443 8.69525 3.17801C8.91239 3.0616 9.15487 3.00046 9.40125 3H14.5988C14.8451 3.00046 15.0876 3.0616 15.3047 3.17801C15.5219 3.29443 15.707 3.46255 15.8438 3.6675L16.9012 5.25H19.5C20.0967 5.25 20.669 5.48705 21.091 5.90901C21.5129 6.33097 21.75 6.90326 21.75 7.5ZM20.25 7.5C20.25 7.30109 20.171 7.11032 20.0303 6.96967C19.8897 6.82902 19.6989 6.75 19.5 6.75H16.5C16.3765 6.75008 16.2549 6.71966 16.146 6.66143C16.037 6.60321 15.9442 6.51899 15.8756 6.41625L14.5988 4.5H9.40125L8.12438 6.41625C8.05583 6.51899 7.96297 6.60321 7.85405 6.66143C7.74512 6.71966 7.62351 6.75008 7.5 6.75H4.5C4.30109 6.75 4.11032 6.82902 3.96967 6.96967C3.82902 7.11032 3.75 7.30109 3.75 7.5V18C3.75 18.1989 3.82902 18.3897 3.96967 18.5303C4.11032 18.671 4.30109 18.75 4.5 18.75H19.5C19.6989 18.75 19.8897 18.671 20.0303 18.5303C20.171 18.3897 20.25 18.1989 20.25 18V7.5Z" fill="black" style="fill:black;fill-opacity:1;"/>
</svg>
